# xmcd CD database file generated by Grip 3.0.7
# 
# Track frame offsets:
#       187
#       20092
#       36285
# 
# Disc length: 823 seconds
# 
# Revision: 2
# Processed by: cddbd v1.5.1PL0 Copyright (c) Steve Scherf et al.
# Submitted via: Grip 3.0.7
# 
DISCID=20033503
DTITLE=EXTREME - There Is No God
DYEAR=1994
DGENRE=Hard Rock
TTITLE0=There Is No God
TTITLE1=Never Been Funked
TTITLE2=Better Off Dead
EXTD=
EXTT0=
EXTT1=
EXTT2=
PLAYORDER=
